<?xml version="1.0" encoding="utf-8"?>
<!-- Generator: Adobe Illustrator 16.0.0, SVG Export Plug-In . SVG Version: 6.00 Build 0)  -->
<!DOCTYPE svg PUBLIC "-//W3C//DTD SVG 1.1//EN" "http://www.w3.org/Graphics/SVG/1.1/DTD/svg11.dtd">
<svg version="1.1" xmlns="http://www.w3.org/2000/svg" xmlns:xlink="http://www.w3.org/1999/xlink" x="0px" y="0px"
	 width="1095.13477px" height="1015.64307px" viewBox="23.71143 -0.08643 1095.13477 1015.64307"
	 style="enable-background:new 23.71143 -0.08643 1095.13477 1015.64307;" xml:space="preserve">
<style type="text/css">
<![CDATA[
	.st0{display:none;opacity:0.8;}
	.st1{fill:#FFFFFF;stroke:#000000;stroke-miterlimit:10;}
	.st2{fill:#E2C533;stroke:#000000;stroke-width:2;stroke-miterlimit:10;}
	.st3{fill:#BDF9EA;stroke:#000000;stroke-miterlimit:10;}
	.st4{filter:url(#Adobe_OpacityMaskFilter);}
	.st5{mask:url(#Calque_2_-_copie_2_1_);}
	.st6{mask:url(#Calque_2_-_copie_3_1_);}
	.st7{fill:#FF00CC;stroke:#000000;stroke-miterlimit:10;}
	.st8{fill:#0065F7;stroke:#000000;stroke-miterlimit:10;}
	.st9{mask:url(#Calque_2_-_copie_4_2_);}
	.st10{mask:url(#Calque_2_-_copie_4_3_);}
	.st11{fill:#FAFF36;stroke:#000000;stroke-miterlimit:10;}
	.st12{display:inline;fill:none;stroke:#000000;stroke-miterlimit:10;}
	.st13{fill:#ED0A36;stroke:#000000;stroke-miterlimit:10;}
	.st14{fill:#55FF81;stroke:#000000;stroke-miterlimit:10;}
	.st15{fill:#B044FC;stroke:#000000;stroke-miterlimit:10;}
	.st16{fill:#FF0B4B;stroke:#000000;stroke-miterlimit:10;}
	.st17{fill:#1CF946;stroke:#000000;stroke-width:2;stroke-miterlimit:1;}
	.st18{fill:#ED6500;}
	.st19{display:inline;fill:#F2E219;stroke:#000000;stroke-miterlimit:10;}
	.st20{fill:#EF9014;}
	.st21{fill:#EFDD00;}
	.st22{opacity:0.8;fill:#FCFCFC;}
	.st23{fill:#00CC33;stroke:#000000;stroke-miterlimit:10;}
	.st24{fill:#EFA30C;stroke:#000000;stroke-width:2;stroke-miterlimit:10;}
	.st25{mask:url(#Calque_2_-_copie_1_);}
	.st26{fill:#F2E219;}
	.st27{fill:#EABD2F;stroke:#000000;stroke-width:2;stroke-miterlimit:10;}
	.st28{fill:#F70041;}
	.st29{fill:#FC1583;stroke:#000000;stroke-miterlimit:10;}
	.st30{display:none;fill:#FFFFFF;stroke:#000000;stroke-width:2;stroke-miterlimit:10;}
	.st31{fill:#F9F9F7;}
	.st32{fill:#0ABAEF;fill-opacity:0.3;}
	.st33{fill:url(#SVGID_2_);}
	.st34{fill:#06CAFF;stroke:#000000;stroke-miterlimit:10;}
	.st35{fill:#FCD21F;stroke:#000000;stroke-miterlimit:10;}
	.st36{fill:#871DCC;stroke:#000000;stroke-miterlimit:10;}
	.st37{fill:#FFFF00;stroke:#000000;stroke-miterlimit:10;}
	.st38{fill:#8B26F7;stroke:#000000;stroke-miterlimit:10;}
	.st39{fill:none;stroke:#000000;stroke-miterlimit:10;}
	.st40{fill:#FF391A;}
	.st41{fill:#009DF4;stroke:#000000;stroke-miterlimit:10;}
	.st42{fill:#FFFFFF;}
	.st43{fill:#00E24B;stroke:#000000;stroke-miterlimit:10;}
	.st44{fill:#F7DC14;stroke:#000000;stroke-width:2;stroke-miterlimit:10;}
	.st45{fill:#B23CF7;stroke:#000000;stroke-miterlimit:10;}
	.st46{fill:#055AE2;stroke:#000000;stroke-miterlimit:10;}
	.st47{fill:#00CCFF;stroke:#000000;stroke-miterlimit:10;}
	.st48{opacity:0.85;mask:url(#Calque_6_-_copie_1_);}
	.st49{fill:#F7F70B;stroke:#000000;stroke-miterlimit:10;}
	.st50{fill:#F90808;stroke:#000000;stroke-miterlimit:10;}
	.st51{fill:#E59E00;stroke:#000000;stroke-miterlimit:10;}
	.st52{fill:#03C4D8;stroke:#000000;stroke-miterlimit:10;}
	.st53{fill:#00C2A0;}
	.st54{fill:#00F2E6;}
	.st55{fill:#00F422;}
	.st56{fill:#F4DA1E;stroke:#000000;stroke-miterlimit:10;}
	.st57{fill:none;stroke:#000000;stroke-width:2;stroke-miterlimit:10;}
	.st58{fill:#FFFFFF;stroke:#FFFFFF;stroke-miterlimit:10;}
	.st59{fill:#C6A900;stroke:#000000;stroke-width:2;stroke-miterlimit:10;}
	.st60{fill:#FFFFFD;stroke:#000000;stroke-miterlimit:10;}
	.st61{fill:#05D5E5;}
	.st62{stroke:#000000;stroke-miterlimit:10;}
	.st63{fill:#F4E41E;stroke:#000000;stroke-miterlimit:10;}
	.st64{mask:url(#Calque_3_1_);}
	.st65{fill:#FFFFFF;stroke:#000000;stroke-width:0.5;stroke-linecap:round;stroke-linejoin:round;}
	.st66{display:none;}
	.st67{fill:#00FFFF;stroke:#000000;stroke-miterlimit:10;}
	.st68{fill:#E803AD;stroke:#000000;stroke-miterlimit:10;}
	.st69{fill:#F7321E;stroke:#000000;stroke-miterlimit:10;}
	.st70{fill:#E7C900;stroke:#000000;stroke-width:2;stroke-miterlimit:10;}
	.st71{stroke:#000000;stroke-width:2;stroke-miterlimit:10;}
	.st72{fill:#F73128;stroke:#000000;stroke-width:2;stroke-miterlimit:1;}
	.st73{display:inline;fill:url(#SVGID_1_);}
	.st74{fill:#14D105;stroke:#000000;stroke-miterlimit:10;}
	.st75{fill:#4359FF;}
	.st76{filter:url(#Adobe_OpacityMaskFilter_1_);}
	.st77{filter:url(#Adobe_OpacityMaskFilter_2_);}
	.st78{filter:url(#Adobe_OpacityMaskFilter_3_);}
	.st79{filter:url(#Adobe_OpacityMaskFilter_4_);}
	.st80{filter:url(#Adobe_OpacityMaskFilter_5_);}
	.st81{filter:url(#Adobe_OpacityMaskFilter_6_);}
	.st82{fill:#03EDC6;stroke:#000000;stroke-width:2;stroke-miterlimit:10;}
	.st83{fill:#F27833;stroke:#000000;stroke-miterlimit:10;}
]]>
</style>
<g id="Calque_1">
	<g id="Calque_4">
	</g>
	<g id="Calque_12">
		<path class="st27" d="M964.12061,587.75781c3.59375,7.46875,6.95508,15.07031,10.12695,22.76953l140.02148-78.11914
			L964.12061,587.75781z"/>
		<path class="st72" d="M849.28076,440.97656c12.41797,10.29688,24.24414,21.2793,35.44336,32.87109l175.54492-276.26123
			L849.28076,440.97656z"/>
		<path class="st16" d="M571.60303,368.91992c22.14258,0,43.86328,1.79297,65.04883,5.19336L572.26904,0.08643L506.68848,374.0918
			C527.8291,370.70508,549.50732,368.91992,571.60303,368.91992z"/>
		<path class="st27" d="M718.55811,366.37695l40.81055-263.79053l-84.55273,250.67725
			C689.71045,356.88477,704.30811,361.26563,718.55811,366.37695z"/>
	</g>
	<g id="Calque_4_1_" class="st0">
		<linearGradient id="SVGID_1_" gradientUnits="userSpaceOnUse" x1="565.81201" y1="173.75293" x2="637.54077" y2="176.25775">
			<stop  offset="0" style="stop-color:#CCE0F4;stop-opacity:0"/>
			<stop  offset="0.00821" style="stop-color:#CCDFEB;stop-opacity:0.01632"/>
			<stop  offset="0.06418" style="stop-color:#CED8B5;stop-opacity:0.12759"/>
			<stop  offset="0.12212" style="stop-color:#D0D385;stop-opacity:0.24276"/>
			<stop  offset="0.18087" style="stop-color:#D1CE5C;stop-opacity:0.35954"/>
			<stop  offset="0.24054" style="stop-color:#D2CA3B;stop-opacity:0.47816"/>
			<stop  offset="0.3015" style="stop-color:#D3C721;stop-opacity:0.59933"/>
			<stop  offset="0.36421" style="stop-color:#D4C50E;stop-opacity:0.724"/>
			<stop  offset="0.42983" style="stop-color:#D4C304;stop-opacity:0.85442"/>
			<stop  offset="0.50306" style="stop-color:#D4C300"/>
			<stop  offset="0.60849" style="stop-color:#D5C101"/>
			<stop  offset="0.66627" style="stop-color:#D7B903"/>
			<stop  offset="0.71252" style="stop-color:#DBAB08"/>
			<stop  offset="0.75268" style="stop-color:#E0970E"/>
			<stop  offset="0.78887" style="stop-color:#E77E16"/>
			<stop  offset="0.8222" style="stop-color:#F05F1F"/>
			<stop  offset="0.85274" style="stop-color:#FA3B2B"/>
			<stop  offset="0.86517" style="stop-color:#FF2A30"/>
			<stop  offset="0.99438" style="stop-color:#FF0055"/>
		</linearGradient>
		<polygon class="st73" points="571.77881,2.88232 631.64697,345.03955 571.77881,345.03955 		"/>
	</g>
	<g id="Calque_15">
	</g>
	<g id="Calque_12_-_copie">
		<path class="st27" d="M178.9917,587.96094L28.28857,532.4082l140.5498,78.41406
			C172.01709,603.0918,175.38916,595.46094,178.9917,587.96094z"/>
		<path class="st72" d="M293.55127,441.29297L82.28857,197.58643l175.80078,276.66553
			C269.29053,462.62695,281.12646,451.61914,293.55127,441.29297z"/>
		<path class="st27" d="M467.79004,353.41016l-84.60107-250.82373l40.84375,264.00732
			C438.2876,361.45703,452.88965,357.05664,467.79004,353.41016z"/>
	</g>
	<g id="Calque_14">
		<g>
			<path class="st17" d="M1118.26904,416.32031l-198.57813,98.53711c-29.58594-39.32813-65.65234-73.50391-106.65625-100.88281
				l89.23438-303.38818l-153.0957,268.09717c-54.22852-24.25781-114.32031-37.76367-177.57031-37.76367
				c-63.45166,0-123.71338,13.60742-178.07617,38.01172L240.28857,110.58643l89.34082,303.75342
				c-40.86133,27.37695-76.84082,61.47461-106.32715,100.73438L24.28857,416.32031l179.55859,126.90625
				c-42.78418,67.37891-67.57715,147.30469-67.57715,233.02734c0,87.92578,26.0918,169.74414,70.91895,238.1875
				c8.58691-3.39063,17.61816-6.66406,27.09277-9.80078c-44.18848-65.13867-70.01172-143.74414-70.01172-228.38672
				c0-224.96289,182.36914-407.33203,407.33301-407.33398c224.96289,0,407.33398,182.37109,407.33398,407.33398
				c0,84.64258-25.82422,163.24805-70.01172,228.38672c9.47461,3.13672,18.50586,6.41016,27.0918,9.80078
				c44.82813-68.44336,70.91992-150.26172,70.91992-238.1875c0-85.85938-24.88477-165.89063-67.79688-233.33008
				L1118.26904,416.32031z"/>
			<path d="M571.60303,368.91992c-224.96387,0.00195-407.33301,182.37109-407.33301,407.33398
				c0,84.64258,25.82324,163.24805,70.01172,228.38672c11.30371-3.74219,23.22754-7.29297,35.7002-10.64453
				c-44.26855-61.21484-70.37891-136.42383-70.37891-217.74219c0-205.44922,166.5498-372,372-372c205.44922,0,372,166.55078,372,372
				c0,81.31836-26.11133,156.52734-70.37891,217.74219c12.47266,3.35156,24.39648,6.90234,35.70117,10.64453
				c44.1875-65.13867,70.01172-143.74414,70.01172-228.38672C978.93701,551.29102,796.56592,368.91992,571.60303,368.91992z"/>
		</g>
	</g>
	<g id="Calque_1_1_">
		<path class="st39" d="M811.60303,498.25586c31.49805,37.16797,62.16602,194.33008,62.16602,194.33008s-0.6582,9.23242-8.5,12.5
			C847.76904,634.08594,824.26904,527.58984,811.60303,498.25586z"/>
		<g id="XMLID_24_">
			<g>
				<path class="st61" d="M854.27686,708.91797c-22.5,12-50,18.66016-50,18.66016
					c-2.83984-12.71875-18.45898-104.33984-30.33984-155c-23-98.03906-48.40039-178.7998-55-191.66016
					c8.16016,7.74023,55.74023,60.04102,65.33984,83.32031C804.27686,512.73828,828.43701,589.23828,854.27686,708.91797z"/>
			</g>
			<g>
				<path class="st39" d="M804.27686,727.57813c-2.83984-12.71875-18.45898-104.33984-30.33984-155
					c-23-98.03906-48.40039-178.7998-55-191.66016c8.16016,7.74023,55.74023,60.04102,65.33984,83.32031
					c20,48.5,44.16016,125,70,244.67969C831.77686,720.91797,804.27686,727.57813,804.27686,727.57813z"/>
			</g>
		</g>
		<g id="XMLID_23_">
			<g>
				<path class="st61" d="M854.27686,708.91797c-22.5,12-50,18.66016-50,18.66016
					c-2.83984-12.71875-18.45898-104.33984-30.33984-155c-23-98.03906-48.40039-178.7998-55-191.66016
					c8.16016,7.74023,55.74023,60.04102,65.33984,83.32031C804.27686,512.73828,828.43701,589.23828,854.27686,708.91797z"/>
			</g>
			<g>
				<path class="st39" d="M804.27686,727.57813c-2.83984-12.71875-18.45898-104.33984-30.33984-155
					c-23-98.03906-48.40039-178.7998-55-191.66016c8.16016,7.74023,55.74023,60.04102,65.33984,83.32031
					c20,48.5,44.16016,125,70,244.67969C831.77686,720.91797,804.27686,727.57813,804.27686,727.57813z"/>
			</g>
		</g>
		<g id="XMLID_22_">
			<g>
				<path class="st40" d="M763.51709,558.33789c12.64063,49.78125,33.41992,172.58008,33.41992,172.58008
					s-33.66016,13.16016-58.16016,16.16016c-1.58008-30.53906-8.19922-98.09961-15.69922-169.53906
					c-11.19922-106.60059-18.14063-153.96094-18.14063-153.96094S752.19678,513.6582,763.51709,558.33789z"/>
			</g>
			<g>
				<path class="st39" d="M796.93701,730.91797c0,0-33.66016,13.16016-58.16016,16.16016
					c-1.58008-30.53906-8.19922-98.09961-15.69922-169.53906c-11.19922-106.60059-18.14063-153.96094-18.14063-153.96094
					s47.25977,90.08008,58.58008,134.75977C776.15771,608.11914,796.93701,730.91797,796.93701,730.91797z"/>
			</g>
		</g>
		<g id="Calque_5">
			<defs>
				
					<filter id="Adobe_OpacityMaskFilter" filterUnits="userSpaceOnUse" x="690.08643" y="349.31885" width="193.73535" height="437.43604">
					<feColorMatrix  type="matrix" values="1 0 0 0 0  0 1 0 0 0  0 0 1 0 0  0 0 0 1 0"/>
				</filter>
			</defs>
			<mask maskUnits="userSpaceOnUse" x="690.08643" y="349.31885" width="193.73535" height="437.43604" id="Calque_2_-_copie_1_">
				<g class="st4">
					<path class="st65" d="M804.26904,727.58594c-2.83984-12.7207-18.46094-104.33984-30.33984-155
						c-23-98.03906-48.40039-178.79883-55-191.66016c8.16016,7.74023,55.74023,60.04102,65.33984,83.32031
						c20,48.5,44.16016,125,70,244.67969C831.76904,720.92578,804.26904,727.58594,804.26904,727.58594z"/>
				</g>
			</mask>
			<g id="Calque_2_-_copie" class="st25">
				<line class="st39" x1="757.47607" y1="382.41797" x2="744.39404" y2="508.46875"/>
				<line class="st39" x1="748.7124" y1="380.62305" x2="736.22412" y2="504.05859"/>
				<line class="st39" x1="739.50146" y1="381.01953" x2="727.01514" y2="504.45508"/>
				<line class="st39" x1="732.60107" y1="374.58594" x2="720.11475" y2="498.02148"/>
				<line class="st39" x1="727.94287" y1="357.19922" x2="715.45654" y2="480.63477"/>
				<line class="st39" x1="719.18115" y1="355.40625" x2="706.69482" y2="478.83984"/>
				<line class="st39" x1="709.97217" y1="355.80273" x2="697.48389" y2="479.23633"/>
				<line class="st39" x1="703.07178" y1="349.36914" x2="690.5835" y2="472.80273"/>
				<line class="st39" x1="753.18701" y1="424.87109" x2="842.76514" y2="510.70703"/>
				<line class="st39" x1="752.22217" y1="436.27344" x2="835.9585" y2="516.50781"/>
				<line class="st39" x1="750.85693" y1="447.60156" x2="830.60107" y2="524.01172"/>
				<line class="st39" x1="750.09912" y1="457.28125" x2="821.28271" y2="525.48633"/>
				<path class="st39" d="M750.03662,456.10156"/>
				<line class="st39" x1="753.61475" y1="416.32031" x2="836.58154" y2="495.63672"/>
				<line class="st39" x1="776.91748" y1="591.79883" x2="785.98779" y2="491.76367"/>
				<line class="st39" x1="786.90186" y1="587.30469" x2="794.20068" y2="499.97461"/>
				<line class="st39" x1="796.56396" y1="581.23828" x2="802.72021" y2="507.57813"/>
				<line class="st39" x1="804.56396" y1="575.73438" x2="809.69678" y2="514.29297"/>
				<line class="st39" x1="770.29053" y1="599.95703" x2="779.47412" y2="485.21289"/>
				<line class="st39" x1="746.18311" y1="491.96094" x2="776.65967" y2="521.16211"/>
				<line class="st39" x1="744.97607" y1="503.12695" x2="775.53467" y2="532.4082"/>
				<line class="st39" x1="749.37061" y1="519.97656" x2="774.521" y2="544.07617"/>
				<line class="st39" x1="756.04834" y1="536.78125" x2="773.50732" y2="553.50781"/>
				<line class="st39" x1="746.93506" y1="483.53906" x2="776.96631" y2="512.31641"/>
				<line class="st39" x1="739.5249" y1="615.15234" x2="838.03467" y2="556.24023"/>
				<line class="st39" x1="752.44873" y1="614.44922" x2="850.9585" y2="555.53906"/>
				<line class="st39" x1="751.33936" y1="620.61328" x2="849.85107" y2="561.70313"/>
				<line class="st39" x1="757.44092" y1="622.77734" x2="855.95264" y2="563.86719"/>
				<line class="st39" x1="781.24365" y1="608.48242" x2="856.92139" y2="665.50195"/>
				<line class="st39" x1="789.01709" y1="603.79492" x2="861.16553" y2="658.15234"/>
				<polyline class="st39" points="795.22021,600.57813 832.16748,628.41406 868.89209,656.08398 				"/>
				<line class="st39" x1="775.2749" y1="612.12891" x2="857.06201" y2="673.74805"/>
				<line class="st39" x1="843.27881" y1="558.43359" x2="822.12646" y2="620.81836"/>
				<line class="st39" x1="851.90381" y1="551.98438" x2="827.34521" y2="624.41406"/>
				<line class="st39" x1="859.63037" y1="549.91406" x2="832.80225" y2="629.04297"/>
				<line class="st39" x1="843.65771" y1="532.79883" x2="815.64795" y2="615.40625"/>
				<polyline class="st39" points="823.17725,648.21875 834.51318,685.79102 849.56006,731.99609 				"/>
				<polyline class="st39" points="832.99951,655.68164 849.22803,708.57227 865.34326,761.93164 				"/>
				<polyline class="st39" points="840.3667,660.95508 856.57764,712.81641 872.69092,766.17578 				"/>
				<polyline class="st39" points="848.74365,667.23828 866.09521,727.10742 883.34131,786.61523 				"/>
				<polyline class="st39" points="792.01904,624.58594 808.51318,675.79102 823.56006,721.99609 				"/>
				<line class="st39" x1="784.18701" y1="619.66797" x2="819.0835" y2="723.31641"/>
				<line class="st39" x1="778.51904" y1="622.33594" x2="812.43506" y2="725.34961"/>
				<line class="st39" x1="774.51904" y1="624.33594" x2="808.26904" y2="726.58594"/>
				<line class="st39" x1="817.93701" y1="704.58594" x2="836.771" y2="697.41992"/>
				<line class="st39" x1="819.43701" y1="708.58594" x2="839.10303" y2="700.75195"/>
				<line class="st39" x1="817.93701" y1="704.58594" x2="836.771" y2="697.41992"/>
				<line class="st39" x1="819.68701" y1="712.21094" x2="839.521" y2="704.37695"/>
				<line class="st39" x1="816.76904" y1="700.25195" x2="836.271" y2="692.91992"/>
				<line class="st39" x1="817.93701" y1="704.58594" x2="837.771" y2="696.91992"/>
				<line class="st39" x1="821.43701" y1="715.41992" x2="841.271" y2="707.58594"/>
				<line class="st39" x1="821.93701" y1="718.58594" x2="841.771" y2="710.75195"/>
				<line class="st39" x1="815.93506" y1="695.75195" x2="835.43701" y2="688.41992"/>
				<line class="st39" x1="813.93506" y1="691.75195" x2="833.43701" y2="684.41992"/>
				<line class="st39" x1="812.43506" y1="687.75195" x2="831.93701" y2="680.41992"/>
			</g>
		</g>
		<g id="Calque_2" class="st66">
			<path class="st19" d="M675.77686,757.07813c-8.5-64.33984-25.83984-402.66016-20.16016-418.16016
				c9.83984,17.96094,67.16016,218.16016,75.16016,409.16016C716.03662,753.31836,675.77686,757.07813,675.77686,757.07813z"/>
			<line class="st12" x1="676.26904" y1="757.58594" x2="721.51904" y2="639.21094"/>
			<line class="st12" x1="684.26904" y1="761.58594" x2="728.26904" y2="645.58594"/>
			<line class="st12" x1="693.26904" y1="763.58594" x2="737.26904" y2="647.58594"/>
			<line class="st12" x1="698.26904" y1="771.58594" x2="742.26904" y2="655.58594"/>
			<line class="st12" x1="698.26904" y1="789.58594" x2="742.26904" y2="673.58594"/>
			<line class="st12" x1="706.26904" y1="793.58594" x2="750.26904" y2="677.58594"/>
			<line class="st12" x1="715.26904" y1="795.58594" x2="759.26904" y2="679.58594"/>
			<line class="st12" x1="720.26904" y1="803.58594" x2="764.26904" y2="687.58594"/>
			<line class="st12" x1="691.396" y1="717.6875" x2="627.07568" y2="611.59766"/>
			<line class="st12" x1="695.27686" y1="706.92383" x2="635.15186" y2="607.75391"/>
			<line class="st12" x1="699.52686" y1="696.33398" x2="642.26904" y2="601.89453"/>
			<line class="st12" x1="702.76318" y1="687.17969" x2="651.65186" y2="602.87891"/>
			<path class="st12" d="M702.51904,688.33594"/>
			<line class="st12" x1="688.76904" y1="725.83594" x2="629.15186" y2="627.75391"/>
			<line class="st12" x1="711.66357" y1="550.30469" x2="677.01904" y2="644.58594"/>
			<line class="st12" x1="700.85693" y1="552.0625" x2="671.21045" y2="634.53125"/>
			<line class="st12" x1="689.95264" y1="555.42188" x2="664.94678" y2="624.98047"/>
			<line class="st12" x1="680.80029" y1="558.66797" x2="659.94482" y2="616.69141"/>
			<line class="st12" x1="720.17529" y1="544.13867" x2="681.6167" y2="652.59961"/>
			<line class="st12" x1="715.51904" y1="654.69531" x2="693.63623" y2="618.60156"/>
			<line class="st12" x1="719.57373" y1="644.22266" x2="697.63232" y2="608.03125"/>
			<line class="st12" x1="719.68896" y1="626.80859" x2="701.63037" y2="597.02148"/>
			<line class="st12" x1="717.5874" y1="608.84766" x2="705.05029" y2="588.17188"/>
			<line class="st12" x1="712.61475" y1="662.63672" x2="691.05029" y2="627.06641"/>
			<line class="st12" x1="753.82568" y1="537.42188" x2="643.42725" y2="568.83789"/>
			<line class="st12" x1="741.15967" y1="534.75586" x2="630.76123" y2="566.17188"/>
			<line class="st12" x1="743.82568" y1="529.08789" x2="633.42725" y2="560.50391"/>
			<line class="st12" x1="738.4917" y1="525.42188" x2="628.09326" y2="556.83594"/>
			<line class="st12" x1="711.80225" y1="533.07031" x2="653.45264" y2="458.41016"/>
			<line class="st12" x1="703.07959" y1="535.58594" x2="647.45264" y2="464.41016"/>
			<polyline class="st12" points="696.25537,537.08984 667.76904,500.64063 639.45264,464.41016 			"/>
			<line class="st12" x1="718.50928" y1="531.0918" x2="655.45264" y2="450.41016"/>
			<line class="st12" x1="638.9292" y1="565.36133" x2="675.50342" y2="510.57617"/>
			<line class="st12" x1="628.9292" y1="569.36133" x2="671.39209" y2="505.75195"/>
			<line class="st12" x1="620.9292" y1="569.36133" x2="667.31787" y2="499.86914"/>
			<line class="st12" x1="631.9292" y1="590.02734" x2="680.36084" y2="517.47852"/>
			<polyline class="st12" points="681.57764,483.83594 680.34912,444.61133 677.76904,396.08594 			"/>
			<polyline class="st12" points="674.01904,474.08594 672.02881,418.79688 670.26904,363.08594 			"/>
			<polyline class="st12" points="668.26904,467.08594 666.02881,412.79688 664.26904,357.08594 			"/>
			<polyline class="st12" points="661.80225,458.84961 660.53271,396.5293 659.26904,334.58789 			"/>
		</g>
		<g id="XMLID_2_">
			<g>
				<path class="st70" d="M655.6167,338.91797c9.83984,17.96094,67.16016,218.16016,75.16016,409.16016c-14.74023,5.24023-55,9-55,9
					C667.27686,692.73828,649.93701,354.41797,655.6167,338.91797z"/>
			</g>
			<defs>
				
					<filter id="Adobe_OpacityMaskFilter_1_" filterUnits="userSpaceOnUse" x="628.39893" y="334.08105" width="112.20898" height="448.59082">
					<feColorMatrix  type="matrix" values="1 0 0 0 0  0 1 0 0 0  0 0 1 0 0  0 0 0 1 0"/>
				</filter>
			</defs>
			<mask maskUnits="userSpaceOnUse" x="628.39893" y="334.08105" width="112.20898" height="448.59082" id="Calque_2_-_copie_4_2_">
				<g class="st76">
					<g id="XMLID_1_">
						<g>
							<path class="st31" d="M655.6167,338.91797c9.83984,17.96094,67.16016,218.16016,75.16016,409.16016
								c-14.74023,5.24023-55,9-55,9C667.27686,692.73828,649.93701,354.41797,655.6167,338.91797z"/>
						</g>
					</g>
				</g>
			</mask>
			<g id="Calque_2_-_copie_4" class="st9">
				<line class="st39" x1="728.26904" y1="645.58789" x2="727.04834" y2="648.79785"/>
				<polygon class="st83" points="711.65869,549.41797 677.01904,644.58789 671.2085,634.52832 700.6792,552.54785 				"/>
				<polygon class="st14" points="689.94873,555.41797 664.94873,624.97852 659.94873,616.68848 680.69873,558.23438 				"/>
				<polygon class="st8" points="680.69873,558.23828 659.94873,616.68848 657.479,564.84863 				"/>
				<polygon class="st29" points="718.65869,547.56836 681.8833,652.59863 677.01904,644.58789 711.65869,549.41797 				"/>
				<polygon class="st43" points="696.53857,537.3584 660.25928,547.68848 680.69873,517.12793 				"/>
				<polygon class="st28" points="708.479,502.7085 699.80908,507.1582 681.57861,483.83838 681.56885,483.68848 
					681.68896,483.83838 678.30908,397.9585 				"/>
				<polygon class="st55" points="681.56885,483.68848 677.99854,479.16846 674.04834,474.14844 670.60889,372.87842 
					677.88916,396.08838 678.26904,397.01855 678.26904,397.02832 678.30908,397.9585 678.03857,397.02832 				"/>
				<polygon class="st18" points="674.04834,474.14844 668.39893,466.97852 668.25928,466.79834 666.02881,412.79834 
					664.26904,352.38818 670.59912,372.87842 670.60889,372.87842 				"/>
				<polygon class="st54" points="668.25928,466.79834 661.78857,458.52832 660.52881,396.52832 659.30908,336.31836 
					664.26904,352.38818 666.02881,412.79834 				"/>
				<polygon class="st21" points="661.78857,458.52832 655.44873,450.4082 650.15869,334.59814 658.85889,334.87842 
					659.29834,336.29834 659.30908,336.31836 660.52881,396.52832 				"/>
				<polyline class="st39" points="668.25928,466.79834 666.02881,412.79834 664.26904,352.38818 659.30908,336.31836 				"/>
				<polygon class="st39" points="681.68896,483.83838 681.56885,483.68848 677.99854,479.16846 674.04834,474.14844 
					670.60889,372.87842 677.88916,396.08838 678.26904,397.01855 678.26904,397.02832 678.30908,397.9585 				"/>
				<polygon class="st39" points="661.78857,458.52832 655.44873,450.4082 650.15869,334.59814 658.85889,334.87842 
					659.29834,336.29834 659.30908,336.31836 660.52881,396.52832 				"/>
				<polygon class="st51" points="711.65869,532.88867 704.07861,535.20801 703.01904,535.50879 647.58838,464.58838 
					647.44873,464.4082 653.44873,458.4082 				"/>
				<polygon class="st36" points="703.01904,535.50879 696.53857,537.3584 683.54834,520.76855 680.69873,517.12793 
					671.58838,505.48828 667.25928,499.94824 655.94873,485.49854 639.65869,464.67822 639.58838,464.58838 647.58838,464.58838 
									"/>
				<polygon class="st1" points="711.7085,532.87793 711.65869,532.88867 653.44873,458.4082 655.44873,450.4082 
					661.78857,458.52832 668.25928,466.79834 668.39893,466.97852 674.04834,474.14844 677.99854,479.16846 681.56885,483.68848 
					681.57861,483.83838 699.80908,507.1582 				"/>
				<polygon class="st63" points="667.24854,499.96826 657.55908,514.48828 655.94873,485.49854 				"/>
				<polygon class="st68" points="671.58838,505.48828 639.44873,553.6084 629.56885,556.41797 667.24854,499.96826 				"/>
				<polygon class="st34" points="675.49854,510.57813 648.49854,551.02832 639.44873,553.6084 671.58838,505.48828 				"/>
				<polygon class="st1" points="680.69873,517.12793 660.25928,547.68848 648.49854,551.02832 675.49854,510.57813 				"/>
				<polygon class="st41" points="723.05908,534.99805 655.96924,554.08789 660.25928,547.68848 720.65869,530.31836 				"/>
				<polygon class="st13" points="725.60889,539.17871 651.91846,560.14844 655.96924,554.08789 723.05908,534.99805 				"/>
				<polygon class="st35" points="727.73877,544.84863 646.73877,567.89844 651.91846,560.14844 725.60889,539.17871 				"/>
				<polygon class="st45" points="700.6792,552.54785 671.2085,634.52832 664.94873,624.97852 690.13916,555.54785 				"/>
				<line class="st39" x1="700.89893" y1="552.48828" x2="700.6792" y2="552.54785"/>
				<polygon class="st52" points="718.65869,610.8584 704.57861,587.49805 712.61865,564.70801 				"/>
				<polygon class="st46" points="722.52881,631.64844 701.38916,596.53809 704.57861,587.49805 718.65869,610.8584 				"/>
				<polygon class="st3" points="723.51904,633.14844 719.37451,644.21875 697.62842,608.02832 701.38916,596.53809 				"/>
				<polygon class="st11" points="719.37451,644.21875 715.51904,654.69824 693.6958,618.69238 697.43896,607.75879 				"/>
				<polygon class="st50" points="715.51904,654.69824 712.48682,662.63867 690.79443,626.95996 693.6958,618.69238 				"/>
				<polygon class="st62" points="712.48877,662.63867 703.15869,687.24805 681.87842,652.59863 690.79834,626.95801 				"/>
				<polygon class="st74" points="703.15869,687.24805 699.52881,696.33789 662.05908,634.52832 664.94873,624.97852 				"/>
				<polygon class="st38" points="727.04834,648.79785 684.26904,761.58789 676.26904,757.58789 722.52881,635.92871 				"/>
				<polygon class="st67" points="699.52881,696.33789 695.27881,706.92871 658.08838,645.58789 662.05908,634.52832 				"/>
				<polygon class="st69" points="695.41846,707.21875 691.39893,717.68848 651.99854,652.70801 658.08838,645.58789 				"/>
				<polygon class="st37" points="691.39893,717.68848 688.50928,725.4082 646.36865,656.08789 651.99854,652.70801 				"/>
				<polygon class="st60" points="688.50928,725.4082 676.26904,757.58789 665.02881,686.77832 				"/>
				<polygon class="st23" points="733.25928,658.14844 693.26904,763.58789 684.26904,761.58789 725.60889,652.59863 				"/>
				<polygon class="st47" points="738.50928,665.49805 698.26904,771.58789 693.26904,763.58789 733.25928,658.14844 				"/>
				<polygon class="st56" points="739.98877,679.58789 703.15869,776.69824 698.26904,771.58789 735.34912,673.83789 				"/>
				<polygon class="st15" points="738.4292,708.80859 710.69873,781.89844 703.15869,776.69824 731.86865,700.99805 				"/>
				<polygon class="st7" points="739.98877,730.41797 728.16846,761.58789 720.00928,757.3584 731.96924,725.83789 				"/>
			</g>
		</g>
	</g>
	<g id="Calque_1_-_copie">
		<path class="st39" d="M333.94287,498.25586c-31.49805,37.16797-62.17383,193.33008-62.17383,193.33008
			s0.66602,10.23242,8.50781,13.5C297.77686,634.08594,321.27686,527.58984,333.94287,498.25586z"/>
		<g id="XMLID_11_">
			<g>
				<path class="st61" d="M291.26904,708.91797c22.5,12,50,18.66016,50,18.66016c2.83984-12.71875,18.45996-104.33984,30.33984-155
					c23-98.03906,48.3999-178.7998,55-191.66016c-8.16016,7.74023-55.74023,60.04102-65.33984,83.32031
					C341.26904,512.73828,317.10889,589.23828,291.26904,708.91797z"/>
			</g>
			<g>
				<path class="st39" d="M341.26904,727.57813c2.83984-12.71875,18.45996-104.33984,30.33984-155
					c23-98.03906,48.3999-178.7998,55-191.66016c-8.16016,7.74023-55.74023,60.04102-65.33984,83.32031
					c-20,48.5-44.16016,125-70,244.67969C313.76904,720.91797,341.26904,727.57813,341.26904,727.57813z"/>
			</g>
		</g>
		<g id="XMLID_10_">
			<g>
				<path class="st75" d="M291.26904,708.91797c22.5,12,50,18.66016,50,18.66016c2.83984-12.71875,18.45996-104.33984,30.33984-155
					c23-98.03906,48.3999-178.7998,55-191.66016c-8.16016,7.74023-55.74023,60.04102-65.33984,83.32031
					C341.26904,512.73828,317.10889,589.23828,291.26904,708.91797z"/>
			</g>
			<g>
				<path class="st39" d="M341.26904,727.57813c2.83984-12.71875,18.45996-104.33984,30.33984-155
					c23-98.03906,48.3999-178.7998,55-191.66016c-8.16016,7.74023-55.74023,60.04102-65.33984,83.32031
					c-20,48.5-44.16016,125-70,244.67969C313.76904,720.91797,341.26904,727.57813,341.26904,727.57813z"/>
			</g>
		</g>
		<g id="XMLID_9_">
			<g>
				<path class="st40" d="M382.02881,558.33789c-12.64014,49.78125-33.41992,172.58008-33.41992,172.58008
					s33.66016,13.16016,58.16016,16.16016c1.58008-30.53906,8.19971-98.09961,15.69971-169.53906
					c11.2002-106.60059,18.14014-153.96094,18.14014-153.96094S393.34912,513.6582,382.02881,558.33789z"/>
			</g>
			<g>
				<path class="st39" d="M348.60889,730.91797c0,0,33.66016,13.16016,58.16016,16.16016
					c1.58008-30.53906,8.19971-98.09961,15.69971-169.53906c11.2002-106.60059,18.14014-153.96094,18.14014-153.96094
					s-47.25977,90.08008-58.58008,134.75977C369.38867,608.11914,348.60889,730.91797,348.60889,730.91797z"/>
			</g>
		</g>
		<defs>
			
				<filter id="Adobe_OpacityMaskFilter_2_" filterUnits="userSpaceOnUse" x="380.80957" y="334.57764" width="144.22266" height="469.18604">
				<feColorMatrix  type="matrix" values="1 0 0 0 0  0 1 0 0 0  0 0 1 0 0  0 0 0 1 0"/>
			</filter>
		</defs>
		<mask maskUnits="userSpaceOnUse" x="380.80957" y="334.57764" width="144.22266" height="469.18604" id="Calque_2_-_copie_2_1_">
			<g class="st77">
				<g id="XMLID_18_">
					<g>
						<path class="st26" d="M414.77686,748.08594c14.74023,5.24023,54.99951,9,54.99951,9
							c8.5-64.33984,25.83984-402.66016,20.16016-418.16016C480.09668,356.88672,422.77686,557.08594,414.77686,748.08594z"/>
					</g>
					<g>
						<path class="st39" d="M469.77637,757.08594c8.5-64.33984,25.83984-402.66016,20.16016-418.16016
							c-9.83984,17.96094-67.15967,218.16016-75.15967,409.16016C429.51709,753.32617,469.77637,757.08594,469.77637,757.08594z"/>
					</g>
				</g>
			</g>
		</mask>
		<g id="Calque_2_-_copie_2" class="st5">
			<line class="st39" x1="469.27637" y1="757.58594" x2="424.02686" y2="639.21094"/>
			<line class="st39" x1="461.27637" y1="761.58594" x2="417.27686" y2="645.58594"/>
			<line class="st39" x1="452.27637" y1="763.58594" x2="408.27686" y2="647.58594"/>
			<line class="st39" x1="447.27637" y1="771.58594" x2="403.27686" y2="655.58594"/>
			<line class="st39" x1="447.27637" y1="789.58594" x2="403.27686" y2="673.58594"/>
			<line class="st39" x1="439.27686" y1="793.58594" x2="395.27686" y2="677.58594"/>
			<line class="st39" x1="430.27686" y1="795.58594" x2="386.27686" y2="679.58594"/>
			<line class="st39" x1="425.27686" y1="803.58594" x2="381.27686" y2="687.58594"/>
			<line class="st39" x1="454.14941" y1="717.6875" x2="518.46973" y2="611.59766"/>
			<line class="st39" x1="450.26855" y1="706.92383" x2="510.39355" y2="607.75391"/>
			<line class="st39" x1="446.01855" y1="696.33398" x2="503.27637" y2="601.89453"/>
			<line class="st39" x1="442.78271" y1="687.17969" x2="493.89355" y2="602.87891"/>
			<path class="st39" d="M443.02686,688.33594"/>
			<line class="st39" x1="456.77637" y1="725.83594" x2="516.39355" y2="627.75391"/>
			<line class="st39" x1="433.88232" y1="550.30469" x2="468.52637" y2="644.58594"/>
			<line class="st39" x1="444.68896" y1="552.0625" x2="474.33496" y2="634.53125"/>
			<line class="st39" x1="455.59277" y1="555.42188" x2="480.59863" y2="624.98047"/>
			<line class="st39" x1="464.74512" y1="558.66797" x2="485.60059" y2="616.69141"/>
			<line class="st39" x1="425.37061" y1="544.13867" x2="463.92871" y2="652.59961"/>
			<line class="st39" x1="430.02686" y1="654.69531" x2="451.90918" y2="618.60156"/>
			<line class="st39" x1="425.97217" y1="644.22266" x2="447.91309" y2="608.03125"/>
			<line class="st39" x1="425.85693" y1="626.80859" x2="443.91553" y2="597.02148"/>
			<line class="st39" x1="427.9585" y1="608.84766" x2="440.49561" y2="588.17188"/>
			<line class="st39" x1="432.93115" y1="662.63672" x2="454.49512" y2="627.06641"/>
			<line class="st39" x1="391.72021" y1="537.42188" x2="502.11816" y2="568.83789"/>
			<line class="st39" x1="404.38623" y1="534.75586" x2="514.78418" y2="566.17188"/>
			<line class="st39" x1="401.72021" y1="529.08789" x2="512.11816" y2="560.50391"/>
			<line class="st39" x1="407.0542" y1="525.42188" x2="517.45215" y2="556.83594"/>
			<line class="st39" x1="433.74365" y1="533.07031" x2="492.09277" y2="458.41016"/>
			<line class="st39" x1="442.46631" y1="535.58594" x2="498.09277" y2="464.41016"/>
			<polyline class="st39" points="449.29004,537.08984 477.77637,500.64063 506.09277,464.41016 			"/>
			<line class="st39" x1="427.03662" y1="531.0918" x2="490.09277" y2="450.41016"/>
			<line class="st39" x1="506.61621" y1="565.36133" x2="470.04199" y2="510.57617"/>
			<line class="st39" x1="516.61621" y1="569.36133" x2="474.15332" y2="505.75195"/>
			<line class="st39" x1="524.61621" y1="569.36133" x2="478.22754" y2="499.86914"/>
			<line class="st39" x1="513.61621" y1="590.02734" x2="465.18457" y2="517.47852"/>
			<polyline class="st39" points="463.96777,483.83594 465.19629,444.61133 467.77637,396.08594 			"/>
			<polyline class="st39" points="471.52637,474.08594 473.5166,418.79688 475.27637,363.08594 			"/>
			<polyline class="st39" points="477.27637,467.08594 479.5166,412.79688 481.27637,357.08594 			"/>
			<polyline class="st39" points="483.74316,458.84961 485.0127,396.5293 486.27637,334.58789 			"/>
		</g>
		<g id="Calque_5_-_copie">
			<defs>
				
					<filter id="Adobe_OpacityMaskFilter_3_" filterUnits="userSpaceOnUse" x="261.72412" y="349.31885" width="193.73535" height="437.43604">
					<feColorMatrix  type="matrix" values="1 0 0 0 0  0 1 0 0 0  0 0 1 0 0  0 0 0 1 0"/>
				</filter>
			</defs>
			<mask maskUnits="userSpaceOnUse" x="261.72412" y="349.31885" width="193.73535" height="437.43604" id="Calque_2_-_copie_3_1_">
				<g class="st78">
					<path class="st65" d="M341.27686,727.58594c2.83984-12.7207,18.46094-104.33984,30.33984-155
						c23-98.03906,48.40039-178.79883,55-191.66016c-8.16016,7.74023-55.74023,60.04102-65.33984,83.32031
						c-20,48.5-44.16016,125-70,244.67969C313.77686,720.92578,341.27686,727.58594,341.27686,727.58594z"/>
				</g>
			</mask>
			<g id="Calque_2_-_copie_3" class="st6">
				<line class="st39" x1="388.06982" y1="382.41797" x2="401.15186" y2="508.46875"/>
				<line class="st39" x1="396.8335" y1="380.62305" x2="409.32178" y2="504.05859"/>
				<line class="st39" x1="406.04443" y1="381.01953" x2="418.53076" y2="504.45508"/>
				<line class="st39" x1="412.94482" y1="374.58594" x2="425.43115" y2="498.02148"/>
				<line class="st39" x1="417.60303" y1="357.19922" x2="430.08936" y2="480.63477"/>
				<line class="st39" x1="426.36475" y1="355.40625" x2="438.85107" y2="478.83984"/>
				<line class="st39" x1="435.57373" y1="355.80273" x2="448.06152" y2="479.23633"/>
				<line class="st39" x1="442.47412" y1="349.36914" x2="454.96191" y2="472.80273"/>
				<line class="st39" x1="392.35889" y1="424.87109" x2="302.78076" y2="510.70703"/>
				<line class="st39" x1="393.32373" y1="436.27344" x2="309.5874" y2="516.50781"/>
				<line class="st39" x1="394.68896" y1="447.60156" x2="314.94482" y2="524.01172"/>
				<line class="st39" x1="395.44678" y1="457.28125" x2="324.26318" y2="525.48633"/>
				<path class="st39" d="M395.50928,456.10156"/>
				<line class="st39" x1="391.93115" y1="416.32031" x2="308.96436" y2="495.63672"/>
				<line class="st39" x1="368.62842" y1="591.79883" x2="359.55811" y2="491.76367"/>
				<line class="st39" x1="358.64404" y1="587.30469" x2="351.34521" y2="499.97461"/>
				<line class="st39" x1="348.98193" y1="581.23828" x2="342.82568" y2="507.57813"/>
				<line class="st39" x1="340.98193" y1="575.73438" x2="335.84912" y2="514.29297"/>
				<line class="st39" x1="375.25537" y1="599.95703" x2="366.07178" y2="485.21289"/>
				<line class="st39" x1="399.36279" y1="491.96094" x2="368.88623" y2="521.16211"/>
				<line class="st39" x1="400.56982" y1="503.12695" x2="370.01123" y2="532.4082"/>
				<line class="st39" x1="396.17529" y1="519.97656" x2="371.0249" y2="544.07617"/>
				<line class="st39" x1="389.49756" y1="536.78125" x2="372.03857" y2="553.50781"/>
				<line class="st39" x1="398.61084" y1="483.53906" x2="368.57959" y2="512.31641"/>
				<line class="st39" x1="406.021" y1="615.15234" x2="307.51123" y2="556.24023"/>
				<line class="st39" x1="393.09717" y1="614.44922" x2="294.5874" y2="555.53906"/>
				<line class="st39" x1="394.20654" y1="620.61328" x2="295.69482" y2="561.70313"/>
				<line class="st39" x1="388.10498" y1="622.77734" x2="289.59326" y2="563.86719"/>
				<line class="st39" x1="364.30225" y1="608.48242" x2="288.62451" y2="665.50195"/>
				<line class="st39" x1="356.52881" y1="603.79492" x2="284.38037" y2="658.15234"/>
				<polyline class="st39" points="350.32568,600.57813 313.37842,628.41406 276.65381,656.08398 				"/>
				<line class="st39" x1="370.271" y1="612.12891" x2="288.48389" y2="673.74805"/>
				<line class="st39" x1="302.26709" y1="558.43359" x2="323.41943" y2="620.81836"/>
				<line class="st39" x1="293.64209" y1="551.98438" x2="318.20068" y2="624.41406"/>
				<line class="st39" x1="285.91553" y1="549.91406" x2="312.74365" y2="629.04297"/>
				<line class="st39" x1="301.88818" y1="532.79883" x2="329.89795" y2="615.40625"/>
				<polyline class="st39" points="322.36865,648.21875 311.03271,685.79102 295.98584,731.99609 				"/>
				<polyline class="st39" points="312.54639,655.68164 296.31787,708.57227 280.20264,761.93164 				"/>
				<polyline class="st39" points="305.1792,660.95508 288.96826,712.81641 272.85498,766.17578 				"/>
				<polyline class="st39" points="296.80225,667.23828 279.45068,727.10742 262.20459,786.61523 				"/>
				<polyline class="st39" points="353.52686,624.58594 337.03271,675.79102 321.98584,721.99609 				"/>
				<line class="st39" x1="361.35889" y1="619.66797" x2="327.27686" y2="722.58594"/>
				<line class="st39" x1="367.02686" y1="622.33594" x2="333.27686" y2="724.58594"/>
				<line class="st39" x1="371.02686" y1="624.33594" x2="337.27686" y2="726.58594"/>
				<line class="st39" x1="327.60889" y1="704.58594" x2="308.7749" y2="697.41992"/>
				<line class="st39" x1="326.10889" y1="708.58594" x2="306.44287" y2="700.75195"/>
				<line class="st39" x1="327.60889" y1="704.58594" x2="308.7749" y2="697.41992"/>
				<line class="st39" x1="325.85889" y1="712.21094" x2="306.0249" y2="704.37695"/>
				<line class="st39" x1="328.77686" y1="700.25195" x2="309.2749" y2="692.91992"/>
				<line class="st39" x1="327.60889" y1="704.58594" x2="307.7749" y2="696.91992"/>
				<line class="st39" x1="324.10889" y1="715.41992" x2="304.2749" y2="707.58594"/>
				<line class="st39" x1="323.60889" y1="718.58594" x2="303.7749" y2="710.75195"/>
				<line class="st39" x1="329.61084" y1="695.75195" x2="310.10889" y2="688.41992"/>
				<line class="st39" x1="331.61084" y1="691.75195" x2="312.10889" y2="684.41992"/>
				<line class="st39" x1="333.11084" y1="687.75195" x2="313.60889" y2="680.41992"/>
			</g>
		</g>
		<g id="XMLID_3_">
			<g>
				<path class="st70" d="M469.87402,756.36621c0,0-40.25977-3.75977-55-9c8-191,65.32031-391.19922,75.16016-409.16016
					C495.71387,353.70605,478.37402,692.02637,469.87402,756.36621z"/>
			</g>
			<defs>
				
					<filter id="Adobe_OpacityMaskFilter_4_" filterUnits="userSpaceOnUse" x="405.04297" y="333.36914" width="112.20947" height="448.59082">
					<feColorMatrix  type="matrix" values="1 0 0 0 0  0 1 0 0 0  0 0 1 0 0  0 0 0 1 0"/>
				</filter>
			</defs>
			<mask maskUnits="userSpaceOnUse" x="405.04297" y="333.36914" width="112.20947" height="448.59082" id="Calque_2_-_copie_4_3_">
				<g class="st79">
					<g id="XMLID_4_">
						<g>
							<path class="st31" d="M469.87402,756.36621c0,0-40.25977-3.75977-55-9c8-191,65.32031-391.19922,75.16016-409.16016
								C495.71387,353.70605,478.37402,692.02637,469.87402,756.36621z"/>
						</g>
					</g>
				</g>
			</mask>
			<g id="Calque_2_-_copie_4_1_" class="st10">
				<line class="st39" x1="418.60254" y1="648.08594" x2="417.38184" y2="644.87598"/>
				<polygon class="st83" points="433.99219,548.70605 468.63184,643.87598 474.44238,633.81641 444.97168,551.83594 				"/>
				<polygon class="st14" points="455.70215,554.70605 480.70215,624.2666 485.70215,615.97656 464.95215,557.52246 				"/>
				<polygon class="st8" points="464.95215,557.52637 485.70215,615.97656 488.17188,564.13672 				"/>
				<polygon class="st29" points="426.99219,546.85645 463.76758,651.88672 468.63184,643.87598 433.99219,548.70605 				"/>
				<polygon class="st43" points="449.1123,536.64648 485.3916,546.97656 464.95215,516.41602 				"/>
				<polygon class="st28" points="437.17188,501.99658 445.8418,506.44629 464.07227,483.12646 464.08203,482.97656 
					463.96191,483.12646 467.3418,397.24658 				"/>
				<polygon class="st55" points="464.08203,482.97656 467.65234,478.45654 471.60254,473.43652 475.04199,372.1665 
					467.76172,395.37646 467.38184,396.30664 467.38184,396.31641 467.3418,397.24658 467.6123,396.31641 				"/>
				<polygon class="st18" points="471.60254,473.43652 477.25195,466.2666 477.3916,466.08643 479.62207,412.08643 
					481.38184,351.67627 475.05176,372.1665 475.04199,372.1665 				"/>
				<polygon class="st54" points="477.3916,466.08643 483.8623,457.81641 485.12207,395.81641 486.3418,335.60645 
					481.38184,351.67627 479.62207,412.08643 				"/>
				<polygon class="st21" points="483.8623,457.81641 490.20215,449.69629 495.49219,333.88623 486.79199,334.1665 
					486.35254,335.58643 486.3418,335.60645 485.12207,395.81641 				"/>
				<polyline class="st39" points="486.3418,335.60645 481.38184,351.67627 479.62207,412.08643 477.3916,466.08643 				"/>
				<polygon class="st39" points="463.96191,483.12646 464.08203,482.97656 467.65234,478.45654 471.60254,473.43652 
					475.04199,372.1665 467.76172,395.37646 467.38184,396.30664 467.38184,396.31641 467.3418,397.24658 				"/>
				<polygon class="st39" points="483.8623,457.81641 490.20215,449.69629 495.49219,333.88623 486.79199,334.1665 
					486.35254,335.58643 486.3418,335.60645 485.12207,395.81641 				"/>
				<polygon class="st51" points="433.99219,532.17676 441.57227,534.49609 442.63184,534.79688 498.0625,463.87646 
					498.20215,463.69629 492.20215,457.69629 				"/>
				<polygon class="st36" points="442.63184,534.79688 449.1123,536.64648 462.10254,520.05664 464.95215,516.41602 
					474.0625,504.77637 478.3916,499.23633 489.70215,484.78662 505.99219,463.96631 506.0625,463.87646 498.0625,463.87646 				"/>
				<polygon class="st1" points="433.94238,532.16602 433.99219,532.17676 492.20215,457.69629 490.20215,449.69629 
					483.8623,457.81641 477.3916,466.08643 477.25195,466.2666 471.60254,473.43652 467.65234,478.45654 464.08203,482.97656 
					464.07227,483.12646 445.8418,506.44629 				"/>
				<polygon class="st63" points="478.40234,499.25635 488.0918,513.77637 489.70215,484.78662 				"/>
				<polygon class="st68" points="474.0625,504.77637 506.20215,552.89648 516.08203,555.70605 478.40234,499.25635 				"/>
				<polygon class="st34" points="470.15234,509.86621 497.15234,550.31641 506.20215,552.89648 474.0625,504.77637 				"/>
				<polygon class="st1" points="464.95215,516.41602 485.3916,546.97656 497.15234,550.31641 470.15234,509.86621 				"/>
				<polygon class="st41" points="422.5918,534.28613 489.68164,553.37598 485.3916,546.97656 424.99219,529.60645 				"/>
				<polygon class="st13" points="420.04199,538.4668 493.73242,559.43652 489.68164,553.37598 422.5918,534.28613 				"/>
				<polygon class="st35" points="417.91211,544.13672 498.91211,567.18652 493.73242,559.43652 420.04199,538.4668 				"/>
				<polygon class="st45" points="444.97168,551.83594 474.44238,633.81641 480.70215,624.2666 455.51172,554.83594 				"/>
				<line class="st39" x1="444.97168" y1="551.83594" x2="444.75195" y2="551.77637"/>
				<polygon class="st52" points="426.99219,610.14648 441.07227,586.78613 433.03223,563.99609 				"/>
				<polygon class="st46" points="423.12207,630.93652 444.26172,595.82617 441.07227,586.78613 426.99219,610.14648 				"/>
				<polygon class="st3" points="422.13184,632.43652 426.27637,643.50684 448.02246,607.31641 444.26172,595.82617 				"/>
				<polygon class="st11" points="426.27637,643.50684 430.13184,653.98633 451.95508,617.98047 448.21191,607.04688 				"/>
				<polygon class="st50" points="430.13184,653.98633 433.16406,661.92676 454.85645,626.24805 451.95508,617.98047 				"/>
				<polygon class="st62" points="433.16211,661.92676 442.49219,686.53613 463.77246,651.88672 454.85254,626.24609 				"/>
				<polygon class="st74" points="442.49219,686.53613 446.12207,695.62598 483.5918,633.81641 480.70215,624.2666 				"/>
				<polygon class="st38" points="418.60254,648.08594 461.38184,760.87598 469.38184,756.87598 423.12207,635.2168 				"/>
				<polygon class="st67" points="446.12207,695.62598 450.37207,706.2168 487.5625,644.87598 483.5918,633.81641 				"/>
				<polygon class="st69" points="450.23242,706.50684 454.25195,716.97656 493.65234,651.99609 487.5625,644.87598 				"/>
				<polygon class="st37" points="454.25195,716.97656 457.1416,724.69629 499.28223,655.37598 493.65234,651.99609 				"/>
				<polygon class="st60" points="457.1416,724.69629 469.87402,756.36621 480.62207,686.06641 				"/>
				<polygon class="st23" points="412.3916,657.43652 452.38184,762.87598 461.38184,760.87598 420.04199,651.88672 				"/>
				<polygon class="st47" points="407.1416,664.78613 447.38184,770.87598 452.38184,762.87598 412.3916,657.43652 				"/>
				<polygon class="st56" points="405.66211,678.87598 442.49219,775.98633 447.38184,770.87598 410.30176,673.12598 				"/>
				<polygon class="st15" points="407.22168,708.09668 434.95215,781.18652 442.49219,775.98633 413.78223,700.28613 				"/>
				<polygon class="st7" points="405.66211,729.70605 417.48242,760.87598 425.6416,756.64648 413.68164,725.12598 				"/>
			</g>
		</g>
	</g>
	<g id="Calque_7">
		<path class="st62" d="M474.26855,905.58594c0,0-78.99951-4-102.99951-12s-60-33-60-33L474.26855,905.58594z"/>
		<path class="st62" d="M671.26904,905.58594c0,0,79-4,103-12s60-33,60-33L671.26904,905.58594z"/>
	</g>
	<g id="Calque_6">
		<path class="st57" d="M572.26904,777.58594c116.41797,0,298.5-41.5,302.5-82"/>
		<path class="st57" d="M572.26904,799.58594c116.41797,0,298.5-41.5,302.5-82"/>
		<path class="st57" d="M763.90771,788.22266c61.43359-15.48828,108.8418-36.18945,110.86133-56.63672"/>
	</g>
	<g id="Calque_2_1_">
		<path class="st16" d="M786.4458,946.47754c0,0,55.16699,59.49219,52,69.0791c-25.04199,0-73.33301,0-73.33301,0
			s-4.33398-35.74609-21.66699-55.41211C777.77881,949.47754,786.4458,946.47754,786.4458,946.47754z"/>
		<path class="st16" d="M357.40674,945.97754c0,0-55.16699,59.49219-52,69.0791c25.04199,0,73.33301,0,73.33301,0
			s4.33398-35.74609,21.66699-55.41211C366.07373,948.97754,357.40674,945.97754,357.40674,945.97754z"/>
	</g>
</g>
<defs>
	
		<filter id="Adobe_OpacityMaskFilter_5_" filterUnits="userSpaceOnUse" x="506.68848" y="247.80273" width="59.58057" height="516.89258">
		<feColorMatrix  type="matrix" values="1 0 0 0 0  0 1 0 0 0  0 0 1 0 0  0 0 0 1 0"/>
	</filter>
</defs>
<mask maskUnits="userSpaceOnUse" x="506.68848" y="247.80273" width="59.58057" height="516.89258" id="Calque_3_1_">
	<g class="st80">
		<g>
			<path class="st53" d="M481.26855,759.07813c15.75977,4,51,5.5,85.00049,6c-0.24023-7.74023,0-517.35986,0-517.35986
				s-42.24072,81.19971-48.24072,120.52002C542.76855,393.07813,494.26855,517.57813,481.26855,759.07813z"/>
		</g>
	</g>
</mask>
<g id="Calque_3" class="st64">
	<linearGradient id="SVGID_2_" gradientUnits="userSpaceOnUse" x1="506.68848" y1="506.24902" x2="566.26904" y2="506.24902">
		<stop  offset="0.44059" style="stop-color:#FFFFFF;stop-opacity:0"/>
		<stop  offset="0.57528" style="stop-color:#FFFDD8;stop-opacity:0.24077"/>
		<stop  offset="0.8752" style="stop-color:#FFF976;stop-opacity:0.7769"/>
		<stop  offset="1" style="stop-color:#FFF74B"/>
	</linearGradient>
	<path class="st33" d="M524.61621,366.59375c24.74072,24.83984-4.92773,153.93555-17.92773,395.43555
		c0,0,27.92383,2.69141,59.00732,2.66602c-0.03223-7.87207,0.56641-511.26855,0.57324-516.82715c0-0.02197,0-0.04883,0-0.06543
		C566.26611,247.81055,530.61572,327.27539,524.61621,366.59375z"/>
</g>
<g id="Calque_5_1_">
	<g id="XMLID_20_">
		<g>
			<path class="st49" d="M579.36865,556.9082c-0.01953-143.77979-0.09961-309.17969-0.09961-309.17969
				s42.24023,81.19971,48.24023,120.52002c-17.09082,17.1499,0.75977,81.83984,17.70996,199.76025
				C624.05908,562.12793,602.03857,558.34863,579.36865,556.9082z"/>
			<path class="st49" d="M579.26904,765.08789c0.09961-3.06934,0.10938-85.18945,0.09961-183.11914
				c24.10059,1.65918,47.41992,6.17969,69.61035,13.22949c6.21973,47.04004,11.93945,101.57031,15.29004,163.88965
				C648.50928,763.08789,613.26904,764.58789,579.26904,765.08789z"/>
		</g>
	</g>
	<g id="XMLID_5_">
		<g>
			<path class="st20" d="M566.15869,581.33789c0,98.20996,0.00977,180.66016,0.11035,183.74023c-34-0.5-69.24023-2-85-6
				c3.53955-65.78027,9.71973-122.87012,16.32959-171.63965c19.65039-4.06055,40-6.2002,60.8501-6.2002
				C561.02881,581.23828,563.59912,581.26855,566.15869,581.33789z"/>
			<path class="st20" d="M501.28857,561.26855c16.65039-113.66016,33.5-176.21045,16.74023-193.03027
				c6-39.31982,48.24023-120.52002,48.24023-120.52002s-0.08008,164.97021-0.10059,308.60986
				c-2.56934-0.05957-5.13965-0.08984-7.71973-0.08984C538.94873,556.23828,519.84863,557.95801,501.28857,561.26855z"/>
		</g>
		<g>
			<path class="st39" d="M481.26855,759.07813c15.75977,4,51,5.5,85.00049,6c-0.24023-7.74023,0-517.35986,0-517.35986
				s-42.24072,81.19971-48.24072,120.52002C542.76855,393.07813,494.26855,517.57813,481.26855,759.07813z"/>
		</g>
	</g>
	<defs>
		
			<filter id="Adobe_OpacityMaskFilter_6_" filterUnits="userSpaceOnUse" x="176.36963" y="356.2373" width="706.86914" height="848.58105">
			<feColorMatrix  type="matrix" values="1 0 0 0 0  0 1 0 0 0  0 0 1 0 0  0 0 0 1 0"/>
		</filter>
	</defs>
	<mask maskUnits="userSpaceOnUse" x="176.36963" y="356.2373" width="706.86914" height="848.58105" id="Calque_6_-_copie_1_">
		<g class="st81">
			<path class="st42" d="M481.26855,759.07813c15.75977,4,51,5.5,85.00049,6c-0.24023-7.74023,0-517.35986,0-517.35986
				s-42.24072,81.19971-48.24072,120.52002C542.76855,393.07813,494.26855,517.57813,481.26855,759.07813z"/>
			<path class="st58" d="M664.26904,759.08594c-15.75977,4-51,5.5-85,6c0.24023-7.74023,0-517.35938,0-517.35938
				s42.24023,81.19922,48.24023,120.51953C602.76904,393.08594,651.26904,517.58594,664.26904,759.08594z"/>
		</g>
	</mask>
	<g id="Calque_6_-_copie" class="st48">
		<path class="st57" d="M697.20654,657.64355c30.90137-14.32227,52.33789-45.60938,52.33789-81.90918
			c0-49.83594-40.39941-90.23584-90.23535-90.23584s-90.23535,40.3999-90.23535,90.23584
			c0,13.80273,3.10352,26.87988,8.64453,38.57715"/>
		<circle class="st2" cx="625.11279" cy="670.0166" r="42.13574"/>
		<circle class="st71" cx="625.11279" cy="670.0166" r="21.25586"/>
		<path class="st57" d="M522.97266,620.37988c-2.58447,17.99414-8.16699,35.01953-16.21924,50.55859
			c29.84668,23.39844,49.02539,59.78418,49.02539,100.64941c0,70.59277-57.22705,127.82031-127.82031,127.82031
			c-57.29785,0-105.78809-37.70215-122.02148-89.65039c-6.21484,22.3623-9.53906,45.92773-9.53906,70.27051
			c0,144.72461,117.32275,262.04785,262.04785,262.04785c144.72461,0,262.04785-117.32324,262.04785-262.04785"/>
		<path class="st71" d="M558.44873,1159.47852c-154.33984,0-279.44971-125.11035-279.44971-279.4502
			s125.10986-279.4502,279.44971-279.4502c154.33008,0,279.4502,125.11035,279.4502,279.4502
			S712.77881,1159.47852,558.44873,1159.47852z M648.979,595.19824c-22.19043-7.0498-45.50977-11.57031-69.61035-13.22949
			c-4.37988-0.31055-8.78027-0.52051-13.20996-0.63086c-2.55957-0.06934-5.12988-0.09961-7.70996-0.09961
			c-20.8501,0-41.19971,2.13965-60.8501,6.2002C361.75879,615.53809,259.65869,735.8584,259.65869,880.02832
			c0,165.01953,133.77002,298.79004,298.79004,298.79004c165.00977,0,298.79004-133.77051,298.79004-298.79004
			C857.23877,746.56836,769.73877,633.54785,648.979,595.19824z"/>
		<path class="st57" d="M837.89893,880.02832c0,154.33984-125.12012,279.4502-279.4502,279.4502
			c-154.33984,0-279.44971-125.11035-279.44971-279.4502s125.10986-279.4502,279.44971-279.4502
			C712.77881,600.57813,837.89893,725.68848,837.89893,880.02832z"/>
		<path class="st57" d="M837.89893,880.02832c0,154.33984-125.12012,279.4502-279.4502,279.4502
			c-154.33984,0-279.44971-125.11035-279.44971-279.4502s125.10986-279.4502,279.44971-279.4502
			C712.77881,600.57813,837.89893,725.68848,837.89893,880.02832z"/>
		<path class="st57" d="M537.1333,618.84668c-2.70605,22.03027-9.54297,42.78027-19.69824,61.46484
			c3.3916,3.32422,6.59131,6.84277,9.59668,10.52539c12.59131-21.84668,20.90332-46.47168,23.78516-72.73047"/>
		<path class="st57" d="M511.6084,713.5293c-5.30664-7.63086-11.62695-14.50391-18.77197-20.41699
			c-29.16455,39.01855-75.71094,64.28516-128.17334,64.28516c-12.26367,0-24.20313-1.38477-35.6748-3.99805
			c-0.60303,1.09082-1.17529,2.2002-1.76318,3.30078c-0.7124,4.85938-1.08691,9.83008-1.08691,14.8877
			c0,3.11621,0.14795,6.19629,0.42188,9.24121c12.30518,2.54688,25.04346,3.90918,38.10303,3.90918
			C424.24854,784.73828,477.30957,756.89551,511.6084,713.5293z"/>
		<path class="st57" d="M577.71826,614.31152c-15.75586,13.41797-25.76172,33.3877-25.76172,55.70508
			c0,40.40332,32.75293,73.15625,73.15625,73.15625s73.15625-32.75293,73.15625-73.15625c0-4.21973-0.37695-8.34961-1.0625-12.37305
			c-9.3125,4.31445-19.48145,7.09082-30.18359,7.99805c0.14844,1.43848,0.22559,2.89746,0.22559,4.375
			c0,23.27051-18.86523,42.13574-42.13574,42.13574s-42.13574-18.86523-42.13574-42.13574
			c0-11.85742,4.90527-22.56348,12.78906-30.2207"/>
		<path class="st57" d="M716.83252,597.58398c2.58105-6.79199,4.00684-14.15234,4.00684-21.84961
			c0-33.98242-27.54785-61.53027-61.53027-61.53027c-28.14453,0-51.85742,18.90234-59.18066,44.69922
			C642.07666,564.29492,681.50049,577.72754,716.83252,597.58398z"/>
		<path class="st57" d="M587.71924,431.3584c0,27.21973-22.06055,49.27979-49.27051,49.27979s-49.27002-22.06006-49.27002-49.27979
			c0-27.20996,22.06006-49.27002,49.27002-49.27002S587.71924,404.14844,587.71924,431.3584z"/>
		<path class="st2" d="M538.44873,371.33838c-33.1499,0-60.02002,26.87988-60.02002,60.02002
			c0,33.1499,26.87012,60.02979,60.02002,60.02979c33.15039,0,60.02051-26.87988,60.02051-60.02979
			C598.46924,398.21826,571.59912,371.33838,538.44873,371.33838z M538.44873,480.63818
			c-27.20996,0-49.27002-22.06006-49.27002-49.27979c0-27.20996,22.06006-49.27002,49.27002-49.27002
			s49.27051,22.06006,49.27051,49.27002C587.71924,458.57813,565.65869,480.63818,538.44873,480.63818z"/>
		<path class="st57" d="M587.71924,431.3584c0,27.21973-22.06055,49.27979-49.27051,49.27979s-49.27002-22.06006-49.27002-49.27979
			c0-27.20996,22.06006-49.27002,49.27002-49.27002S587.71924,404.14844,587.71924,431.3584z"/>
		<path class="st57" d="M464.72461,439.10791c-28.94629-18.33398-63.26074-28.95605-100.06152-28.95605
			c-103.43896,0-187.29346,83.854-187.29346,187.29346c0,64.88281,32.99658,122.05469,83.12012,155.66504
			c48.00439-112.55176,157.91211-192.35254,286.95361-196.66406c-4.11719-18.43457-10.95361-35.8418-20.0625-51.78369
			C494.20313,499.69629,468.21777,472.74561,464.72461,439.10791z"/>
		<path class="st57" d="M204.70996,597.44434c0-88.33887,71.61328-159.95264,159.95313-159.95264
			c74.91748,0,137.7959,51.50879,155.17676,121.04053c4.60693-0.54688,9.24072-1.00977,13.90527-1.36133
			c-18.16748-76.55615-86.96973-133.50879-169.08203-133.50879c-95.97754,0-173.78271,77.80518-173.78271,173.7832
			c0,59.39355,29.80225,111.81738,75.26074,143.16113c2.00977-4.20605,4.1167-8.35742,6.30029-12.46094
			C231.4668,699.18164,204.70996,651.43945,204.70996,597.44434z"/>
		<path class="st71" d="M749.54834,575.73828c0,13.27051-2.87988,25.87012-8.0293,37.21973l-11.69043-7.66016
			c3.82031-9.09961,5.93066-19.0791,5.93066-29.55957c0-42.22949-34.23047-76.45996-76.4502-76.45996
			c-35.87988,0-65.9707,24.71973-74.20996,58.05957l-13.32031-3.5791c9.7998-39.21094,45.26953-68.26025,87.53027-68.26025
			C709.14893,485.49854,749.54834,525.89844,749.54834,575.73828z"/>
		<path class="st57" d="M571.77881,553.75879c-0.24023,0.90918-0.4502,1.8291-0.65039,2.75"/>
		<path class="st71" d="M427.95898,643.76855c-70.59033,0-127.82031,57.22949-127.82031,127.81934
			c0,70.59082,57.22998,127.82031,127.82031,127.82031c70.58984,0,127.81982-57.22949,127.81982-127.82031
			C555.77881,700.99805,498.54883,643.76855,427.95898,643.76855z M427.95898,873.4082
			c-56.22998,0-101.82031-45.58984-101.82031-101.82031c0-56.22949,45.59033-101.81934,101.82031-101.81934
			s101.81982,45.58984,101.81982,101.81934C529.77881,827.81836,484.18896,873.4082,427.95898,873.4082z"/>
		<path class="st57" d="M529.77881,771.58789c0,56.23047-45.58984,101.82031-101.81982,101.82031
			s-101.82031-45.58984-101.82031-101.82031c0-56.22949,45.59033-101.81934,101.82031-101.81934
			S529.77881,715.3584,529.77881,771.58789z"/>
		<path class="st20" d="M648.979,595.19824c-22.19043-7.0498-45.50977-11.57031-69.61035-13.22949V556.9082
			c22.66992,1.44043,44.69043,5.21973,65.85059,11.10059C646.479,576.77832,647.73877,585.83789,648.979,595.19824z"/>
		<path class="st49" d="M566.16846,556.32813c0,8.41992,0,16.77051-0.00977,25.00977
			c-2.55957-0.06934-5.12988-0.09961-7.70996-0.09961c-20.8501,0-41.19971,2.13965-60.8501,6.2002
			c1.22021-9.00977,2.45996-17.73047,3.68994-26.16992c18.56006-3.31055,37.66016-5.03027,57.16016-5.03027
			C561.02881,556.23828,563.59912,556.26855,566.16846,556.32813z"/>
		<path class="st57" d="M579.36865,556.9082v25.06055c24.10059,1.65918,47.41992,6.17969,69.61035,13.22949
			c-1.24023-9.36035-2.5-18.41992-3.75977-27.18945c136.68945,37.91992,237.01953,163.25977,237.01953,312.01953
			c0,178.82031-144.96973,323.79004-323.79004,323.79004c-178.83008,0-323.79004-144.96973-323.79004-323.79004
			c0-159.32031,115.06006-291.76953,266.62988-318.75977c-1.22998,8.43945-2.46973,17.16016-3.68994,26.16992
			c19.65039-4.06055,40-6.2002,60.8501-6.2002c2.58008,0,5.15039,0.03027,7.70996,0.09961
			c0.00977-8.23926,0.00977-16.58984,0.00977-25.00977"/>
		<circle class="st57" cx="558.4458" cy="880.02832" r="262.04785"/>
		<circle class="st57" cx="538.44629" cy="431.36279" r="74.12549"/>
		<path class="st57" d="M529.77881,771.58789c0,56.23047-45.58984,101.82031-101.81982,101.82031
			s-101.82031-45.58984-101.82031-101.82031c0-56.22949,45.59033-101.81934,101.82031-101.81934
			S529.77881,715.3584,529.77881,771.58789z"/>
		<path class="st57" d="M502.11816,700.99805c-29.16455,39.01855-75.71094,64.28516-128.17334,64.28516"/>
	</g>
	<path class="st30" d="M481.26855,759.07813c15.75977,4,51,5.5,85.00049,6c-0.24023-7.74023,0-517.35986,0-517.35986
		s-42.24072,81.19971-48.24072,120.52002C542.76855,393.07813,494.26855,517.57813,481.26855,759.07813z"/>
	<path class="st30" d="M664.26904,759.08594c-15.75977,4-51,5.5-85,6c0.24023-7.74023,0-517.35938,0-517.35938
		s42.24023,81.19922,48.24023,120.51953C602.76904,393.08594,651.26904,517.58594,664.26904,759.08594z"/>
</g>
<g id="Calque_8">
	<polygon class="st44" points="651.99854,772.49805 623.4585,775.98828 618.88916,733.13867 646.36865,729.02832 	"/>
	<polygon class="st59" points="676.26904,769.32813 651.99854,772.49805 648.87842,748.43848 669.08838,743.70801 	"/>
	<polygon class="st24" points="734.76904,758.95801 676.26904,769.32813 674.09912,761.58789 733.25928,754.3584 	"/>
</g>
<g id="Calque_7_1_">
	<ellipse class="st82" cx="572.37402" cy="762.52832" rx="52.229" ry="64.56445"/>
	<path class="st22" d="M599.45361,718.5957c0,5.96387-12.44238-3.82715-27.47266-3.82715s-26.95654,9.79102-26.95654,3.82715
		c0-5.96191,12.31885-11.96289,27.3501-11.96289C587.40479,706.63281,599.45361,712.63379,599.45361,718.5957z"/>
	<path class="st32" d="M613.45361,797.96387c0,5.90527-16.83203,24.54492-41.0791,24.54492
		c-24.24805,0-39.08984-27.23242-39.08984-33.1377s14.8418,22.2998,39.08984,22.2998
		C596.62158,811.6709,613.45361,792.05859,613.45361,797.96387z"/>
</g>
</svg>
